<svg xmlns="http://www.w3.org/2000/svg" shape-rendering="geometricPrecision" text-rendering="geometricPrecision" image-rendering="optimizeQuality" fill-rule="evenodd" clip-rule="evenodd" viewBox="0 0 497 511.55"><path fill-rule="nonzero" d="M420.15 0h56.2c5.66 0 10.82 2.33 14.56 6.06C494.68 9.84 497 15 497 20.65V217.6c0 5.68-2.32 10.85-6.06 14.58-3.74 3.74-8.91 6.07-14.59 6.07h-56.2c-5.66 0-10.82-2.33-14.56-6.06-3.77-3.78-6.09-8.94-6.09-14.59v-2.02c-37.28-.12-74.28 1.36-103.79 5.65-24.73 3.61-43.56 8.98-51.51 16.75-9.32 9.1-16.24 30-21.01 59.36-5.08 31.24-7.44 71.33-7.47 116.71h1.88c5.65 0 10.81 2.32 14.56 6.06 3.76 3.77 6.09 8.93 6.09 14.59v56.19c0 5.66-2.33 10.82-6.06 14.56-3.78 3.77-8.94 6.1-14.59 6.1H20.65c-5.65 0-10.81-2.33-14.56-6.07C2.33 501.71 0 496.55 0 490.89V434.7c0-5.66 2.33-10.82 6.06-14.56 3.78-3.77 8.94-6.09 14.59-6.09h2.08c.1-71.39 6.68-135.47 20.82-188.93 14.08-53.2 35.71-96.13 65.93-125.64 31.99-31.24 77.17-50.84 129.53-62.41 48.83-10.8 104.01-14.64 160.49-14.49v-1.93c0-5.65 2.32-10.81 6.06-14.56C409.33 2.33 414.49 0 420.15 0zM399.5 197.36V40.8c-55.31-.15-109.17 3.57-156.56 14.05-49.19 10.87-91.37 29.02-120.74 57.71-27.73 27.08-47.76 67.16-61 117.2-13.76 51.97-20.16 114.49-20.25 184.29h156.56c.03-46.4 2.45-87.48 7.68-119.63 5.38-33.14 13.99-57.51 26.29-69.52 10.99-10.73 33.31-17.61 61.66-21.74 30.26-4.4 68.18-5.92 106.36-5.8zM208.1 432.34c-.46.07-.94.11-1.42.11l-174.81.04c-.58 0-1.14-.06-1.68-.15h-9.54c-.64 0-1.25.26-1.68.68-.41.42-.68 1.02-.68 1.68v56.19c0 .65.27 1.26.68 1.68.43.42 1.04.69 1.68.69H217.6c.65 0 1.25-.27 1.68-.69.42-.42.68-1.03.68-1.68V434.7c0-.66-.26-1.26-.68-1.68-.43-.42-1.03-.68-1.68-.68h-9.5zm209.69-402.1c.08.49.12.99.12 1.51l.04 174.77c0 .6-.05 1.17-.16 1.74v9.34c0 .65.26 1.25.68 1.68.42.42 1.02.68 1.68.68h56.2c.64 0 1.24-.27 1.67-.7.42-.43.69-1.02.69-1.66V20.65c0-.64-.26-1.25-.68-1.68-.42-.41-1.03-.68-1.68-.68h-56.2c-.66 0-1.26.27-1.68.68-.42.43-.68 1.04-.68 1.68v9.59z"/></svg>